<svg width="60" height="60" viewBox="0 0 60 60" fill="none" xmlns="http://www.w3.org/2000/svg">
<circle cx="30" cy="30" r="30" fill="#FED600"/>
<path d="M39.334 32.6666V22C39.334 20.5333 38.134 19.3333 36.6673 19.3333H18.0007C16.534 19.3333 15.334 20.5333 15.334 22V32.6666C15.334 34.1333 16.534 35.3333 18.0007 35.3333H36.6673C38.134 35.3333 39.334 34.1333 39.334 32.6666ZM36.6673 32.6666H18.0007V22H36.6673V32.6666ZM27.334 23.3333C25.1206 23.3333 23.334 25.12 23.334 27.3333C23.334 29.5466 25.1206 31.3333 27.334 31.3333C29.5473 31.3333 31.334 29.5466 31.334 27.3333C31.334 25.12 29.5473 23.3333 27.334 23.3333ZM44.6673 23.3333V38C44.6673 39.4666 43.4673 40.6666 42.0006 40.6666H19.334C19.334 39.3333 19.334 39.4666 19.334 38H42.0006V23.3333C43.4673 23.3333 43.334 23.3333 44.6673 23.3333Z" fill="white"/>
</svg>
